<svg xmlns="http://www.w3.org/2000/svg" viewBox="0 0 185 48" role="img" aria-label="OhMyDesk compact logo">
  <defs>
    <linearGradient id="compact-bg" x1="0" y1="0" x2="40" y2="40" gradientUnits="userSpaceOnUse">
      <stop offset="0%" stop-color="#34d399"/>
      <stop offset="100%" stop-color="#2bb583"/>
    </linearGradient>
  </defs>

  <!-- Icon in rounded square -->
  <g transform="translate(2, 4)">
    <rect width="40" height="40" rx="10" fill="url(#compact-bg)"/>

    <!-- Desk surface -->
    <rect x="6" y="20" width="28" height="3" rx="1.5" fill="#0a0a0a"/>

    <!-- Desk legs -->
    <rect x="9" y="23" width="2" height="10" rx="0.8" fill="rgba(10,10,10,0.85)"/>
    <rect x="29" y="23" width="2" height="10" rx="0.8" fill="rgba(10,10,10,0.85)"/>

    <!-- Monitor -->
    <rect x="11" y="7" width="18" height="12" rx="2" fill="rgba(10,10,10,0.9)"/>

    <!-- Monitor stand -->
    <rect x="18" y="19" width="4" height="2" rx="0.5" fill="rgba(10,10,10,0.85)"/>

    <!-- Calendar dots -->
    <circle cx="16" cy="11.5" r="1.2" fill="#34d399"/>
    <circle cx="20" cy="11.5" r="1.2" fill="#ff9f1c"/>
    <circle cx="24" cy="11.5" r="1.2" fill="#34d399"/>
    <circle cx="16" cy="15.5" r="1.2" fill="#ff9f1c"/>
    <circle cx="20" cy="15.5" r="1.2" fill="#34d399"/>
    <circle cx="24" cy="15.5" r="1.2" fill="#34d399"/>
  </g>

  <!-- Compact wordmark -->
  <g transform="translate(50, 0)">
    <text x="0" y="31" font-family="'SF Mono', 'Fira Code', 'Cascadia Code', monospace" font-size="22" font-weight="600" fill="#1a1a1a" letter-spacing="-0.3">
      OhMy
    </text>
    <text x="52" y="31" font-family="'SF Mono', 'Fira Code', 'Cascadia Code', monospace" font-size="22" font-weight="700" fill="#2bb583" letter-spacing="-0.3">
      Desk
    </text>
    <!-- Accent dot -->
    <circle cx="112" cy="28" r="2.2" fill="#ff9f1c"/>
  </g>
</svg>
