<svg xmlns="http://www.w3.org/2000/svg" width="50.538" height="60.499" viewBox="0 0 50.538 60.499"><g transform="translate(3505.91 850.306)"><path d="M-3424.339-568.04a.82.82,0,0,1-.806.653.886.886,0,0,1-.875-.949.892.892,0,0,1,.875-.957.843.843,0,0,1,.8.6h1a1.771,1.771,0,0,0-1.8-1.52,1.836,1.836,0,0,0-1.891,1.874,1.834,1.834,0,0,0,1.891,1.868,1.779,1.779,0,0,0,1.813-1.572Z" transform="translate(-66.833 -237.349)"/><path d="M-3398.295-569.869a1.168,1.168,0,0,0-.729.261v-1.172h-.947v3.739h.947v-1.468c0-.352.177-.555.462-.555.246,0,.357.162.357.478v1.546h.946V-568.7A1.04,1.04,0,0,0-3398.295-569.869Z" transform="translate(-89.771 -236.866)"/><g transform="translate(-3486.111 -802.458)"><path d="M-3374.666-536.79h-1.515v3.561h.982v-.988h.532a1.265,1.265,0,0,0,1.319-1.289A1.261,1.261,0,0,0-3374.666-536.79Zm-.118,1.719h-.415v-.864h.415a.409.409,0,0,1,.43.432A.409.409,0,0,1-3374.783-535.071Z" transform="translate(3376.18 536.79)"/></g><g transform="translate(-3486.619 -806.739)"><path d="M-3377.133-564.758l-.1.212a1.3,1.3,0,0,0-.839-.295,1.393,1.393,0,0,0-1.44,1.456,1.4,1.4,0,0,0,1.44,1.467,1.289,1.289,0,0,0,.828-.287l.083.194h.731v-2.747Zm-.811,2a.6.6,0,0,1-.615-.628.6.6,0,0,1,.615-.626.605.605,0,0,1,.616.626A.606.606,0,0,1-3377.944-562.754Z" transform="translate(3379.51 564.84)"/></g><rect width="0.946" height="3.739" transform="translate(-3482.937 -807.646)"/><rect width="0.946" height="3.739" transform="translate(-3481.395 -807.646)"/><g transform="translate(-3483.05 -801.732)"><path d="M-3353.743-531.946l-.1.212a1.3,1.3,0,0,0-.842-.3,1.4,1.4,0,0,0-1.439,1.457,1.4,1.4,0,0,0,1.439,1.467,1.309,1.309,0,0,0,.832-.287l.081.194h.73v-2.747Zm-.811,2a.6.6,0,0,1-.615-.626.6.6,0,0,1,.615-.626.6.6,0,0,1,.617.624A.6.6,0,0,1-3354.553-529.944Z" transform="translate(3356.12 532.03)"/></g><path d="M-3330.452-531.56a.914.914,0,0,0-.756.317l-.149-.3h-.633v2.747h.946v-1.4c0-.351.14-.5.476-.5h.367v-.864Z" transform="translate(-147.377 -270.1)"/><g transform="translate(-3480.015 -806.744)"><path d="M-3333.249-563.432a1.427,1.427,0,0,0-1.5-1.438,1.432,1.432,0,0,0-1.492,1.462,1.44,1.44,0,0,0,1.492,1.465,1.446,1.446,0,0,0,1.438-1.018h-.942a.553.553,0,0,1-.5.258.535.535,0,0,1-.562-.479h2.043A1.777,1.777,0,0,0-3333.249-563.432Zm-2.044-.273a.533.533,0,0,1,.545-.424.553.553,0,0,1,.566.424Z" transform="translate(3336.24 564.87)"/></g><path d="M-3315.844-535.667l.858-1.309h-1.064l-.655,1.076v-2.069h-.946v3.74h.946v-1.161l.689,1.161h1.115Z" transform="translate(-159.529 -264.668)"/><path d="M-3312.145-564.81a1.135,1.135,0,0,0-.862.363l-.129-.282h-.665v2.747h.946v-1.467c0-.351.169-.557.465-.557.235,0,.355.159.355.478v1.546h.946v-1.676A1.039,1.039,0,0,0-3312.145-564.81Z" transform="translate(-162.791 -241.925)"/><g transform="translate(-3473.469 -806.742)"><path d="M-3290.979-564.772l-.121.231a1.322,1.322,0,0,0-.867-.319,1.347,1.347,0,0,0-1.373,1.383,1.34,1.34,0,0,0,1.373,1.381,1.338,1.338,0,0,0,.717-.206v.081a.53.53,0,0,1-.572.529.547.547,0,0,1-.532-.284h-.913a1.341,1.341,0,0,0,1.454,1.045,1.333,1.333,0,0,0,1.471-1.4v-2.442Zm-.831,1.9a.572.572,0,0,1-.587-.6.574.574,0,0,1,.587-.6.572.572,0,0,1,.585.6A.572.572,0,0,1-3291.81-562.876Z" transform="translate(3293.341 564.86)"/></g><g transform="translate(-3470.03 -806.744)"><path d="M-3267.818-563.432a1.427,1.427,0,0,0-1.5-1.438,1.432,1.432,0,0,0-1.492,1.462,1.44,1.44,0,0,0,1.492,1.465,1.446,1.446,0,0,0,1.439-1.018h-.942a.553.553,0,0,1-.5.258.536.536,0,0,1-.562-.479h2.042A1.78,1.78,0,0,0-3267.818-563.432Zm-2.044-.273a.534.534,0,0,1,.545-.424.552.552,0,0,1,.565.424Z" transform="translate(3270.81 564.87)"/></g><path d="M-3353.177-708.31l2.265,3.651h-4.619Z" transform="translate(-127.429 -120.325)"/><path d="M-3300.771-732.674l.869-.336v1.537C-3300.23-731.928-3300.47-732.261-3300.771-732.674Z" transform="translate(-173.832 -99.395)"/><path d="M-3285.961-732.5l-.109-.044v-1.989l1.266.433Z" transform="translate(-186.289 -98.107)"/><path d="M-3455.377-820.435v-16.235a1.883,1.883,0,0,0-.572-1.377,1.876,1.876,0,0,0-1.378-.569q-2.649,0-5.293,0a3.92,3.92,0,0,0-.265-1.564,34.639,34.639,0,0,0-1.492-3.579,4.313,4.313,0,0,1-.608-1.879,4.113,4.113,0,0,0-5.8-3.586c-.614-.2-1.216-.441-1.823-.656-3.067-1.088-5.125-.093-6.062,3.045-.032.11-.051.2-.15.259a4.624,4.624,0,0,1-.671.267,7.136,7.136,0,0,0-1.407.65c-1.374.862-2.9,2.17-2.909,3.936a2.967,2.967,0,0,0,.635,1.841c-.042.137-.1.282-.127.383a9.081,9.081,0,0,0-.4,1.56,4.136,4.136,0,0,0,.69,2.891,1.908,1.908,0,0,0-.344.772c-.221-.791-.472-1.572-.723-2.355a5.1,5.1,0,0,0-.842-1.567c-.02-.075-.036-.163-.052-.234a15.9,15.9,0,0,0-.813-2.634,4.472,4.472,0,0,0-2.439-2.343,2.484,2.484,0,0,0-2.768.47,7.157,7.157,0,0,0-2.255,4.081,3.837,3.837,0,0,0-1.628,2.872c0,.035-.011.073-.014.113-.02-.3-.037-.6-.053-.9a1.944,1.944,0,0,0-1.944-1.844q-3.537,0-7.075,0a1.88,1.88,0,0,0-1.378.569,1.876,1.876,0,0,0-.572,1.377v16.235c0,.31-.015.925.016,1.182,1.168,9.973,5.466,18.683,13.8,24.551,3.135,2.207,7.509,4.849,11.429,4.894a.256.256,0,0,0,.045,0c3.918-.046,8.293-2.687,11.427-4.894,8.332-5.868,12.631-14.578,13.8-24.551C-3455.36-819.51-3455.377-820.125-3455.377-820.435Zm-14.935,24.141c-2.757,1.942-6.9,4.5-10.329,4.541-3.427-.04-7.574-2.6-10.329-4.541-7.776-5.477-11.767-13.548-12.937-22.769h18.8l1.6,1.413-8.351,7.065h5.448l5.62-4.757,5.429,4.757h5.4l-8.121-7.051,1.658-1.427h19.059C-3458.545-809.842-3462.537-801.772-3470.312-796.294Zm12.986-24.141h-17.515l3.766-3.243h-5.327l-3.811,3.243h-1.14l-3.749-3.243h-5.219l3.66,3.243h-17.3v-16.235c2.346,0,4.616,0,7.076,0,.233,4.423.836,11.158,7.06,11.666v-2.611a10.543,10.543,0,0,1-3.93-.922,1.329,1.329,0,0,1-.487-2.045,1.068,1.068,0,0,0,.165-.78,3.745,3.745,0,0,1,.768-2.726c.55-.757-.017-2.823,1.456-3.283.358-.11.423-.313.455-.63a5.248,5.248,0,0,1,1.723-3.5.541.541,0,0,1,.669-.124,2.569,2.569,0,0,1,1.426,1.31,14.188,14.188,0,0,1,.711,2.314,2.124,2.124,0,0,0,.369.943,3.29,3.29,0,0,1,.57,1.021c.379,1.186.76,2.375,1.032,3.586a11.657,11.657,0,0,1,.066,1.927,1.543,1.543,0,0,0,.18.548,2.462,2.462,0,0,0,.229.3c.415.627.307,1.225-.4,1.473a15.845,15.845,0,0,1-2.325.517,5.135,5.135,0,0,1-.842.031c-.6.012-.6.011-.6.63v2.041c.9,0,1.8,0,2.7,0l4.964-7.9a.2.2,0,0,0-.007-.266c-.175-.241-.338-.49-.517-.749.1-.09.2-.174.309-.272l.5.786.524-.76c.1.092.19.174.29.267-.161.246-.312.488-.479.719a.25.25,0,0,0,0,.331q2.238,3.553,4.47,7.114l.448.726c.534,0,1.066,0,1.6,0a24.671,24.671,0,0,1,.024-2.605,3.643,3.643,0,0,0-.814-2.985c-.208-.23-.325-.545-.53-.78-.321-.367-.7-.682-1.019-1.05a15.439,15.439,0,0,1-1.458-1.8c-.527-.832-.728-1.223-1.879-.977a2.2,2.2,0,0,1-2.319-2.473c.227-1.512,1.08-2.419.243-3.3-1.082-1.138.735-2.478,1.664-3.06,1.183-.743,2.537-.521,3.06-2.27.608-2.042,1.524-2.483,3.544-1.766.767.272,1.523.581,2.3.8a1.133,1.133,0,0,0,.888-.13c1.17-.945,3.157.324,3.138,1.708a5.893,5.893,0,0,0,.814,2.778,32.019,32.019,0,0,1,1.406,3.377c.723,1.969-1.381,1.341-1.8,3.736a4.246,4.246,0,0,1-1.73,3.113c-.752.476-2.028.629-2.38,1.059-.245.3-.395.676-.644.969a4.615,4.615,0,0,0-1.007,3.719,15.024,15.024,0,0,1,.021,1.924l.593,0c6.41-.378,7.021-7.21,7.257-11.68,2.459,0,4.731,0,7.076,0Z" transform="translate(0.001 0)"/></g></svg>